<svg xmlns="http://www.w3.org/2000/svg" width="15" height="15" viewBox="0 0 15 15"><path d="M68.124,11.937a2.519,2.519,0,0,1-.9-.964,9.093,9.093,0,0,1-.933-4.41c0-.006,0-.011,0-.017a4.344,4.344,0,0,0-3.166-3.86V1.671A1.93,1.93,0,0,0,61.022,0h-.175a1.93,1.93,0,0,0-2.108,1.671V2.686a4.339,4.339,0,0,0-3.167,3.877,9.093,9.093,0,0,1-.933,4.41,2.519,2.519,0,0,1-.9.964.409.409,0,0,0-.3.486.556.556,0,0,0,.557.343h4.071a2.947,2.947,0,0,0,5.718,0h4.071a.556.556,0,0,0,.557-.343A.409.409,0,0,0,68.124,11.937ZM59.849,1.671a.913.913,0,0,1,1-.791h.175a.913.913,0,0,1,1,.791V2.4a6.772,6.772,0,0,0-2.17,0v-.73ZM60.934,14.12a1.613,1.613,0,0,1-1.748-1.353h3.5A1.613,1.613,0,0,1,60.934,14.12Zm2.236-2.234h-7.9a4.476,4.476,0,0,0,.291-.4,9.14,9.14,0,0,0,1.122-4.919c0-1.858,1.907-3.369,4.251-3.369s4.251,1.512,4.251,3.371c0,.005,0,.011,0,.016a9.123,9.123,0,0,0,1.122,4.9,4.479,4.479,0,0,0,.291.4Z" transform="translate(-53.434)"/></svg>