<?xml version="1.0"?>
<svg xmlns="http://www.w3.org/2000/svg" id="Layer_3" enable-background="new 0 0 64 64" height="512px" viewBox="0 0 64 64" width="512px" class=""><g><g><path d="m54.999 44.998h-15.999v-1.999h15.999v-2.001h-15.999v-1.999h15.999v-2.001h-15.999v-1.999h15.999v-2h-15.999v-2h16v-2h-22v4h3c.553 0 1 .447 1 1v7.999c0 .553-.447 1-1 1h-3v4.002h22z" data-original="#000000" class="active-path" data-old_color="#000000" fill="#136D55"/><path d="m33 35h2v5.999h-2z" data-original="#000000" class="active-path" data-old_color="#000000" fill="#136D55"/><path d="m29 27h2v21.999h-2z" data-original="#000000" class="active-path" data-old_color="#000000" fill="#136D55"/><path d="m48.999 23c0-.552-.448-1-1-1s-1 .448-1 1c0 .551.448 1 1 1s1-.449 1-1z" data-original="#000000" class="active-path" data-old_color="#000000" fill="#136D55"/><path d="m61 42v-8.001c0-1.335-.52-2.591-1.464-3.535-.704-.704-1.582-1.17-2.535-1.363l-.001 17.798c2.279-.466 4-2.485 4-4.899z" data-original="#000000" class="active-path" data-old_color="#000000" fill="#136D55"/><path d="m13 29v11.999h14v-6.584l-4-4v2.585c0 .552-.447 1-1 1h-6c-.553 0-1-.448-1-1v-4z" data-original="#000000" class="active-path" data-old_color="#000000" fill="#136D55"/><path d="m54.5 18h-13l-1.5 2h16z" data-original="#000000" class="active-path" data-old_color="#000000" fill="#136D55"/><path d="m41 22v5h14v-5h-4.185c.112.314.184.648.184 1 0 1.654-1.346 3-3 3s-3-1.346-3-3c0-.353.072-.686.184-1z" data-original="#000000" class="active-path" data-old_color="#000000" fill="#136D55"/><path d="m56 49h-23v.999c0 .553-.447 1-1 1h-4c-.553 0-1-.447-1-1v-7h-15c-.553 0-1-.447-1-1v-13.999c0-.553.447-1 1-1h3v-8h-8v29c0 .552-.447 1-1 1h-3v4h8v-3.002c0-1.653 1.345-2.998 2.999-2.998 1.655 0 3 1.345 3 2.998v3.002h2v-3.002c.001-1.653 1.346-2.998 3-2.998 1.655 0 3 1.345 3 2.998v3.002h36v-4z" data-original="#000000" class="active-path" data-old_color="#000000" fill="#136D55"/><path d="m6.617 56.999h2.08l2.999-1.999h-4.079z" data-original="#000000" class="active-path" data-old_color="#000000" fill="#136D55"/><path d="m14 49c-.552 0-1 .447-1 .998v3.002h2v-3.002c0-.551-.449-.998-1-.998z" data-original="#000000" class="active-path" data-old_color="#000000" fill="#136D55"/><path d="m21 32v-18c0-.155.037-.309.106-.447l1.277-2.554h-6.765l1.277 2.554c.068.138.105.292.105.447v18z" data-original="#000000" class="active-path" data-old_color="#000000" fill="#136D55"/><path d="m52.304 55 2.998 1.999h2.08l-1-1.999z" data-original="#000000" class="active-path" data-old_color="#000000" fill="#136D55"/><path d="m22 49c-.552 0-1 .447-1 .998v3.002h2v-3.002c0-.551-.449-.998-1-.998z" data-original="#000000" class="active-path" data-old_color="#000000" fill="#136D55"/><path d="m27 26c0-.43.274-.789.655-.93l-4.655-4.656v7.171l4 4z" data-original="#000000" class="active-path" data-old_color="#000000" fill="#136D55"/><path d="m15 7h8v2h-8z" data-original="#000000" class="active-path" data-old_color="#000000" fill="#136D55"/><path d="m3 21h2v6h-2z" data-original="#000000" class="active-path" data-old_color="#000000" fill="#136D55"/></g></g> </svg>
