<svg xmlns="http://www.w3.org/2000/svg" width="19.947" height="12.713" viewBox="0 0 19.947 12.713"><g transform="translate(0 -92.835)"><g transform="translate(0 92.835)"><g transform="translate(0 0)"><path d="M19.82,98.8c-.178-.244-4.424-5.969-9.847-5.969S.3,98.56.127,98.8a.658.658,0,0,0,0,.776c.178.244,4.424,5.969,9.847,5.969s9.669-5.725,9.847-5.969A.657.657,0,0,0,19.82,98.8Zm-9.847,5.43c-3.994,0-7.454-3.8-8.478-5.042C2.518,97.948,5.97,94.15,9.973,94.15s7.454,3.8,8.478,5.042C17.429,100.435,13.976,104.233,9.973,104.233Z" transform="translate(0 -92.835)"/></g></g><g transform="translate(6.028 95.246)"><g transform="translate(0 0)"><path d="M158.668,154.725a3.946,3.946,0,1,0,3.946,3.946A3.95,3.95,0,0,0,158.668,154.725Zm0,6.576a2.63,2.63,0,1,1,2.63-2.63A2.633,2.633,0,0,1,158.668,161.3Z" transform="translate(-154.722 -154.725)"/></g></g></g></svg>